<svg width="218" height="41" viewBox="0 0 218 41" fill="none" xmlns="http://www.w3.org/2000/svg">
<mask id="path-1-outside-1_228_59" maskUnits="userSpaceOnUse" x="0" y="0" width="218" height="41" fill="black">
<rect fill="white" width="218" height="41"/>
<path d="M1.25 39V3H11V16.85H16V3H25.75V39H16V24.85H11V39H1.25ZM30.0039 10.25H39.0039V39H30.0039V10.25ZM29.7539 1.25H39.2539V8.05H29.7539V1.25ZM51.1922 39.5C49.3589 39.5 47.8422 39.1167 46.6422 38.35C45.4755 37.55 44.5422 36.4667 43.8422 35.1C43.1755 33.7333 42.6922 32.2 42.3922 30.5C42.1255 28.7667 41.9922 26.95 41.9922 25.05C41.9922 19.5833 42.8422 15.6833 44.5422 13.35C46.2755 11.0167 48.7589 9.85 51.9922 9.85C53.4589 9.85 55.0922 10.15 56.8922 10.75V2.6L65.8922 1.25V39H58.2422L57.4922 36.8C56.7589 37.6333 55.8422 38.3 54.7422 38.8C53.6422 39.2667 52.4589 39.5 51.1922 39.5ZM54.1422 32.5C54.5089 32.5 54.9255 32.4333 55.3922 32.3C55.8589 32.1667 56.3589 31.95 56.8922 31.65V17.15C56.1589 16.95 55.4755 16.85 54.8422 16.85C53.3089 16.85 52.3255 17.55 51.8922 18.95C51.4922 20.35 51.2922 22.4667 51.2922 25.3C51.2922 27.9333 51.4922 29.8 51.8922 30.9C52.2922 31.9667 53.0422 32.5 54.1422 32.5ZM78.0965 39.5C76.2632 39.5 74.7465 39.1167 73.5465 38.35C72.3798 37.55 71.4465 36.4667 70.7465 35.1C70.0798 33.7333 69.5965 32.2 69.2965 30.5C69.0298 28.7667 68.8965 26.95 68.8965 25.05C68.8965 19.5833 69.7465 15.6833 71.4465 13.35C73.1798 11.0167 75.6632 9.85 78.8965 9.85C80.3632 9.85 81.9965 10.15 83.7965 10.75V2.6L92.7965 1.25V39H85.1465L84.3965 36.8C83.6632 37.6333 82.7465 38.3 81.6465 38.8C80.5465 39.2667 79.3632 39.5 78.0965 39.5ZM81.0465 32.5C81.4132 32.5 81.8298 32.4333 82.2965 32.3C82.7632 32.1667 83.2632 31.95 83.7965 31.65V17.15C83.0632 16.95 82.3798 16.85 81.7465 16.85C80.2132 16.85 79.2298 17.55 78.7965 18.95C78.3965 20.35 78.1965 22.4667 78.1965 25.3C78.1965 27.9333 78.3965 29.8 78.7965 30.9C79.1965 31.9667 79.9465 32.5 81.0465 32.5ZM109.001 39.5C107.034 39.5 105.234 39.2833 103.601 38.85C102.001 38.4167 100.617 37.65 99.4508 36.55C98.2841 35.45 97.3841 33.9333 96.7508 32C96.1174 30.0667 95.8008 27.6 95.8008 24.6C95.8008 19.7333 96.7008 16.0667 98.5008 13.6C100.334 11.1 103.267 9.85 107.301 9.85C110.967 9.85 113.617 10.8667 115.251 12.9C116.917 14.9 117.751 17.8833 117.751 21.85C117.751 22.7833 117.717 23.75 117.651 24.75C117.584 25.7167 117.467 26.6 117.301 27.4H105.351C105.551 29.4333 106.117 30.8 107.051 31.5C107.984 32.1667 109.551 32.5 111.751 32.5C112.517 32.5 113.301 32.4333 114.101 32.3C114.934 32.1667 115.734 32.0167 116.501 31.85V38.65C115.334 38.8833 114.101 39.0833 112.801 39.25C111.534 39.4167 110.267 39.5 109.001 39.5ZM107.651 16.45C106.317 16.45 105.534 18.25 105.301 21.85H109.401C109.401 21.1167 109.367 20.3333 109.301 19.5C109.267 18.6667 109.117 17.95 108.851 17.35C108.617 16.75 108.217 16.45 107.651 16.45ZM128.782 12.2C130.749 10.6333 132.882 9.85 135.182 9.85C137.482 9.85 139.382 10.5667 140.882 12C142.416 13.4333 143.182 15.5833 143.182 18.45V39H134.182V19.9C134.182 17.8667 133.266 16.85 131.432 16.85C130.699 16.85 130.049 17.0333 129.482 17.4V39H120.482V10.25H128.132L128.782 12.2Z"/>
<path d="M143.195 3H153.595L155.845 18.05L157.395 28.35L159.095 18.05L161.345 3H171.195L162.995 39H151.395L143.195 3ZM183.171 39.5C181.204 39.5 179.404 39.2833 177.771 38.85C176.171 38.4167 174.787 37.65 173.621 36.55C172.454 35.45 171.554 33.9333 170.921 32C170.287 30.0667 169.971 27.6 169.971 24.6C169.971 19.7333 170.871 16.0667 172.671 13.6C174.504 11.1 177.437 9.85 181.471 9.85C185.137 9.85 187.787 10.8667 189.421 12.9C191.087 14.9 191.921 17.8833 191.921 21.85C191.921 22.7833 191.887 23.75 191.821 24.75C191.754 25.7167 191.637 26.6 191.471 27.4H179.521C179.721 29.4333 180.287 30.8 181.221 31.5C182.154 32.1667 183.721 32.5 185.921 32.5C186.687 32.5 187.471 32.4333 188.271 32.3C189.104 32.1667 189.904 32.0167 190.671 31.85V38.65C189.504 38.8833 188.271 39.0833 186.971 39.25C185.704 39.4167 184.437 39.5 183.171 39.5ZM181.821 16.45C180.487 16.45 179.704 18.25 179.471 21.85H183.571C183.571 21.1167 183.537 20.3333 183.471 19.5C183.437 18.6667 183.287 17.95 183.021 17.35C182.787 16.75 182.387 16.45 181.821 16.45ZM194.652 10.25H203.652V39H194.652V10.25ZM194.402 1.25H203.902V8.05H194.402V1.25ZM216.641 39H207.641V2.45L216.641 1.25V39Z"/>
</mask>
<path d="M1.25 39V3H11V16.85H16V3H25.75V39H16V24.85H11V39H1.25ZM30.0039 10.25H39.0039V39H30.0039V10.25ZM29.7539 1.25H39.2539V8.05H29.7539V1.25ZM51.1922 39.5C49.3589 39.5 47.8422 39.1167 46.6422 38.35C45.4755 37.55 44.5422 36.4667 43.8422 35.1C43.1755 33.7333 42.6922 32.2 42.3922 30.5C42.1255 28.7667 41.9922 26.95 41.9922 25.05C41.9922 19.5833 42.8422 15.6833 44.5422 13.35C46.2755 11.0167 48.7589 9.85 51.9922 9.85C53.4589 9.85 55.0922 10.15 56.8922 10.75V2.6L65.8922 1.25V39H58.2422L57.4922 36.8C56.7589 37.6333 55.8422 38.3 54.7422 38.8C53.6422 39.2667 52.4589 39.5 51.1922 39.5ZM54.1422 32.5C54.5089 32.5 54.9255 32.4333 55.3922 32.3C55.8589 32.1667 56.3589 31.95 56.8922 31.65V17.15C56.1589 16.95 55.4755 16.85 54.8422 16.85C53.3089 16.85 52.3255 17.55 51.8922 18.95C51.4922 20.35 51.2922 22.4667 51.2922 25.3C51.2922 27.9333 51.4922 29.8 51.8922 30.9C52.2922 31.9667 53.0422 32.5 54.1422 32.5ZM78.0965 39.5C76.2632 39.5 74.7465 39.1167 73.5465 38.35C72.3798 37.55 71.4465 36.4667 70.7465 35.1C70.0798 33.7333 69.5965 32.2 69.2965 30.5C69.0298 28.7667 68.8965 26.95 68.8965 25.05C68.8965 19.5833 69.7465 15.6833 71.4465 13.35C73.1798 11.0167 75.6632 9.85 78.8965 9.85C80.3632 9.85 81.9965 10.15 83.7965 10.75V2.6L92.7965 1.25V39H85.1465L84.3965 36.8C83.6632 37.6333 82.7465 38.3 81.6465 38.8C80.5465 39.2667 79.3632 39.5 78.0965 39.5ZM81.0465 32.5C81.4132 32.5 81.8298 32.4333 82.2965 32.3C82.7632 32.1667 83.2632 31.95 83.7965 31.65V17.15C83.0632 16.95 82.3798 16.85 81.7465 16.85C80.2132 16.85 79.2298 17.55 78.7965 18.95C78.3965 20.35 78.1965 22.4667 78.1965 25.3C78.1965 27.9333 78.3965 29.8 78.7965 30.9C79.1965 31.9667 79.9465 32.5 81.0465 32.5ZM109.001 39.5C107.034 39.5 105.234 39.2833 103.601 38.85C102.001 38.4167 100.617 37.65 99.4508 36.55C98.2841 35.45 97.3841 33.9333 96.7508 32C96.1174 30.0667 95.8008 27.6 95.8008 24.6C95.8008 19.7333 96.7008 16.0667 98.5008 13.6C100.334 11.1 103.267 9.85 107.301 9.85C110.967 9.85 113.617 10.8667 115.251 12.9C116.917 14.9 117.751 17.8833 117.751 21.85C117.751 22.7833 117.717 23.75 117.651 24.75C117.584 25.7167 117.467 26.6 117.301 27.4H105.351C105.551 29.4333 106.117 30.8 107.051 31.5C107.984 32.1667 109.551 32.5 111.751 32.5C112.517 32.5 113.301 32.4333 114.101 32.3C114.934 32.1667 115.734 32.0167 116.501 31.85V38.65C115.334 38.8833 114.101 39.0833 112.801 39.25C111.534 39.4167 110.267 39.5 109.001 39.5ZM107.651 16.45C106.317 16.45 105.534 18.25 105.301 21.85H109.401C109.401 21.1167 109.367 20.3333 109.301 19.5C109.267 18.6667 109.117 17.95 108.851 17.35C108.617 16.75 108.217 16.45 107.651 16.45ZM128.782 12.2C130.749 10.6333 132.882 9.85 135.182 9.85C137.482 9.85 139.382 10.5667 140.882 12C142.416 13.4333 143.182 15.5833 143.182 18.45V39H134.182V19.9C134.182 17.8667 133.266 16.85 131.432 16.85C130.699 16.85 130.049 17.0333 129.482 17.4V39H120.482V10.25H128.132L128.782 12.2Z" fill="#9A5A5B"/>
<path d="M143.195 3H153.595L155.845 18.05L157.395 28.35L159.095 18.05L161.345 3H171.195L162.995 39H151.395L143.195 3ZM183.171 39.5C181.204 39.5 179.404 39.2833 177.771 38.85C176.171 38.4167 174.787 37.65 173.621 36.55C172.454 35.45 171.554 33.9333 170.921 32C170.287 30.0667 169.971 27.6 169.971 24.6C169.971 19.7333 170.871 16.0667 172.671 13.6C174.504 11.1 177.437 9.85 181.471 9.85C185.137 9.85 187.787 10.8667 189.421 12.9C191.087 14.9 191.921 17.8833 191.921 21.85C191.921 22.7833 191.887 23.75 191.821 24.75C191.754 25.7167 191.637 26.6 191.471 27.4H179.521C179.721 29.4333 180.287 30.8 181.221 31.5C182.154 32.1667 183.721 32.5 185.921 32.5C186.687 32.5 187.471 32.4333 188.271 32.3C189.104 32.1667 189.904 32.0167 190.671 31.85V38.65C189.504 38.8833 188.271 39.0833 186.971 39.25C185.704 39.4167 184.437 39.5 183.171 39.5ZM181.821 16.45C180.487 16.45 179.704 18.25 179.471 21.85H183.571C183.571 21.1167 183.537 20.3333 183.471 19.5C183.437 18.6667 183.287 17.95 183.021 17.35C182.787 16.75 182.387 16.45 181.821 16.45ZM194.652 10.25H203.652V39H194.652V10.25ZM194.402 1.25H203.902V8.05H194.402V1.25ZM216.641 39H207.641V2.45L216.641 1.25V39Z" fill="#56919A"/>
<path d="M1.25 39H0.25V40H1.25V39ZM1.25 3V2H0.25V3H1.25ZM11 3H12V2H11V3ZM11 16.85H10V17.85H11V16.85ZM16 16.85V17.85H17V16.85H16ZM16 3V2H15V3H16ZM25.75 3H26.75V2H25.75V3ZM25.75 39V40H26.75V39H25.75ZM16 39H15V40H16V39ZM16 24.85H17V23.85H16V24.85ZM11 24.85V23.85H10V24.85H11ZM11 39V40H12V39H11ZM1.25 39H2.25V3H1.25H0.25V39H1.25ZM1.25 3V4H11V3V2H1.25V3ZM11 3H10V16.85H11H12V3H11ZM11 16.85V17.85H16V16.85V15.85H11V16.85ZM16 16.85H17V3H16H15V16.85H16ZM16 3V4H25.75V3V2H16V3ZM25.75 3H24.75V39H25.75H26.75V3H25.75ZM25.75 39V38H16V39V40H25.75V39ZM16 39H17V24.85H16H15V39H16ZM16 24.85V23.85H11V24.85V25.85H16V24.85ZM11 24.85H10V39H11H12V24.85H11ZM11 39V38H1.25V39V40H11V39ZM30.0039 10.25V9.25H29.0039V10.25H30.0039ZM39.0039 10.25H40.0039V9.25H39.0039V10.25ZM39.0039 39V40H40.0039V39H39.0039ZM30.0039 39H29.0039V40H30.0039V39ZM29.7539 1.25V0.249997H28.7539V1.25H29.7539ZM39.2539 1.25H40.2539V0.249997H39.2539V1.25ZM39.2539 8.05V9.05H40.2539V8.05H39.2539ZM29.7539 8.05H28.7539V9.05H29.7539V8.05ZM30.0039 10.25V11.25H39.0039V10.25V9.25H30.0039V10.25ZM39.0039 10.25H38.0039V39H39.0039H40.0039V10.25H39.0039ZM39.0039 39V38H30.0039V39V40H39.0039V39ZM30.0039 39H31.0039V10.25H30.0039H29.0039V39H30.0039ZM29.7539 1.25V2.25H39.2539V1.25V0.249997H29.7539V1.25ZM39.2539 1.25H38.2539V8.05H39.2539H40.2539V1.25H39.2539ZM39.2539 8.05V7.05H29.7539V8.05V9.05H39.2539V8.05ZM29.7539 8.05H30.7539V1.25H29.7539H28.7539V8.05H29.7539ZM46.6422 38.35L46.0767 39.1747L46.0901 39.1839L46.1038 39.1927L46.6422 38.35ZM43.8422 35.1L42.9434 35.5384L42.9477 35.5472L42.9521 35.5559L43.8422 35.1ZM42.3922 30.5L41.4038 30.6521L41.4055 30.6629L41.4074 30.6738L42.3922 30.5ZM44.5422 13.35L43.7394 12.7536L43.734 12.7611L44.5422 13.35ZM56.8922 10.75L56.576 11.6987L57.8922 12.1374V10.75H56.8922ZM56.8922 2.6L56.7438 1.61106L55.8922 1.73881V2.6H56.8922ZM65.8922 1.25H66.8922V0.0888098L65.7438 0.261061L65.8922 1.25ZM65.8922 39V40H66.8922V39H65.8922ZM58.2422 39L57.2957 39.3227L57.5266 40H58.2422V39ZM57.4922 36.8L58.4387 36.4773L57.8817 34.8436L56.7415 36.1394L57.4922 36.8ZM54.7422 38.8L55.1327 39.7206L55.1444 39.7156L55.156 39.7104L54.7422 38.8ZM55.3922 32.3L55.6669 33.2615L55.6669 33.2615L55.3922 32.3ZM56.8922 31.65L57.3824 32.5216L57.8922 32.2348V31.65H56.8922ZM56.8922 17.15H57.8922V16.3862L57.1553 16.1852L56.8922 17.15ZM51.8922 18.95L50.9369 18.6543L50.9337 18.6648L50.9307 18.6753L51.8922 18.95ZM51.8922 30.9L50.9523 31.2418L50.9559 31.2511L51.8922 30.9ZM51.1922 39.5V38.5C49.4955 38.5 48.1795 38.1455 47.1806 37.5073L46.6422 38.35L46.1038 39.1927C47.5048 40.0878 49.2222 40.5 51.1922 40.5V39.5ZM46.6422 38.35L47.2077 37.5253C46.1897 36.8272 45.3631 35.8757 44.7322 34.6441L43.8422 35.1L42.9521 35.5559C43.7213 37.0576 44.7613 38.2728 46.0767 39.1747L46.6422 38.35ZM43.8422 35.1L44.741 34.6616C44.1202 33.3891 43.6629 31.9466 43.377 30.3262L42.3922 30.5L41.4074 30.6738C41.7215 32.4534 42.2308 34.0776 42.9434 35.5384L43.8422 35.1ZM42.3922 30.5L43.3806 30.3479C43.1222 28.6689 42.9922 26.9033 42.9922 25.05H41.9922H40.9922C40.9922 26.9967 41.1288 28.8644 41.4038 30.6521L42.3922 30.5ZM41.9922 25.05H42.9922C42.9922 19.633 43.8449 16.0052 45.3504 13.9389L44.5422 13.35L43.734 12.7611C41.8394 15.3615 40.9922 19.5336 40.9922 25.05H41.9922ZM44.5422 13.35L45.3449 13.9463C46.8664 11.8981 49.0343 10.85 51.9922 10.85V9.85V8.85C48.4835 8.85 45.6846 10.1352 43.7394 12.7537L44.5422 13.35ZM51.9922 9.85V10.85C53.3251 10.85 54.8496 11.1232 56.576 11.6987L56.8922 10.75L57.2084 9.80132C55.3348 9.17677 53.5926 8.85 51.9922 8.85V9.85ZM56.8922 10.75H57.8922V2.6H56.8922H55.8922V10.75H56.8922ZM56.8922 2.6L57.0405 3.58893L66.0405 2.23893L65.8922 1.25L65.7438 0.261061L56.7438 1.61106L56.8922 2.6ZM65.8922 1.25H64.8922V39H65.8922H66.8922V1.25H65.8922ZM65.8922 39V38H58.2422V39V40H65.8922V39ZM58.2422 39L59.1887 38.6773L58.4387 36.4773L57.4922 36.8L56.5457 37.1227L57.2957 39.3227L58.2422 39ZM57.4922 36.8L56.7415 36.1394C56.1095 36.8575 55.3112 37.4429 54.3284 37.8896L54.7422 38.8L55.156 39.7104C56.3732 39.1571 57.4082 38.4092 58.2429 37.4606L57.4922 36.8ZM54.7422 38.8L54.3516 37.8794C53.3825 38.2906 52.3328 38.5 51.1922 38.5V39.5V40.5C52.5849 40.5 53.9019 40.2428 55.1327 39.7206L54.7422 38.8ZM54.1422 32.5V33.5C54.6262 33.5 55.1379 33.4127 55.6669 33.2615L55.3922 32.3L55.1175 31.3385C54.7131 31.454 54.3915 31.5 54.1422 31.5V32.5ZM55.3922 32.3L55.6669 33.2615C56.2252 33.102 56.7978 32.8504 57.3824 32.5216L56.8922 31.65L56.4019 30.7784C55.9199 31.0496 55.4925 31.2313 55.1175 31.3385L55.3922 32.3ZM56.8922 31.65H57.8922V17.15H56.8922H55.8922V31.65H56.8922ZM56.8922 17.15L57.1553 16.1852C56.3528 15.9664 55.58 15.85 54.8422 15.85V16.85V17.85C55.371 17.85 55.965 17.9336 56.6291 18.1148L56.8922 17.15ZM54.8422 16.85V15.85C53.924 15.85 53.0766 16.0608 52.3748 16.5603C51.6688 17.0629 51.2041 17.7909 50.9369 18.6543L51.8922 18.95L52.8475 19.2457C53.0136 18.7091 53.2572 18.3871 53.5346 18.1897C53.8162 17.9892 54.227 17.85 54.8422 17.85V16.85ZM51.8922 18.95L50.9307 18.6753C50.4912 20.2134 50.2922 22.4439 50.2922 25.3H51.2922H52.2922C52.2922 22.4894 52.4932 20.4866 52.8537 19.2247L51.8922 18.95ZM51.2922 25.3H50.2922C50.2922 27.9408 50.4873 29.9627 50.9524 31.2417L51.8922 30.9L52.832 30.5583C52.4971 29.6373 52.2922 27.9259 52.2922 25.3H51.2922ZM51.8922 30.9L50.9559 31.2511C51.2091 31.9265 51.6027 32.5078 52.1752 32.915C52.7504 33.324 53.426 33.5 54.1422 33.5V32.5V31.5C53.7584 31.5 53.509 31.4093 53.3342 31.285C53.1567 31.1588 52.9753 30.9402 52.8285 30.5489L51.8922 30.9ZM73.5465 38.35L72.981 39.1747L72.9944 39.1839L73.0081 39.1927L73.5465 38.35ZM70.7465 35.1L69.8477 35.5384L69.852 35.5472L69.8564 35.5559L70.7465 35.1ZM69.2965 30.5L68.3081 30.6521L68.3098 30.6629L68.3117 30.6738L69.2965 30.5ZM71.4465 13.35L70.6437 12.7536L70.6382 12.7611L71.4465 13.35ZM83.7965 10.75L83.4803 11.6987L84.7965 12.1374V10.75H83.7965ZM83.7965 2.6L83.6481 1.61106L82.7965 1.73881V2.6H83.7965ZM92.7965 1.25H93.7965V0.0888098L92.6481 0.261061L92.7965 1.25ZM92.7965 39V40H93.7965V39H92.7965ZM85.1465 39L84.2 39.3227L84.4309 40H85.1465V39ZM84.3965 36.8L85.343 36.4773L84.786 34.8436L83.6458 36.1394L84.3965 36.8ZM81.6465 38.8L82.037 39.7206L82.0487 39.7156L82.0603 39.7104L81.6465 38.8ZM82.2965 32.3L82.5712 33.2615L82.5712 33.2615L82.2965 32.3ZM83.7965 31.65L84.2867 32.5216L84.7965 32.2348V31.65H83.7965ZM83.7965 17.15H84.7965V16.3862L84.0596 16.1852L83.7965 17.15ZM78.7965 18.95L77.8412 18.6543L77.838 18.6648L77.835 18.6753L78.7965 18.95ZM78.7965 30.9L77.8566 31.2418L77.8602 31.2511L78.7965 30.9ZM78.0965 39.5V38.5C76.3998 38.5 75.0838 38.1455 74.0849 37.5073L73.5465 38.35L73.0081 39.1927C74.4091 40.0878 76.1265 40.5 78.0965 40.5V39.5ZM73.5465 38.35L74.112 37.5253C73.094 36.8272 72.2674 35.8757 71.6365 34.6441L70.7465 35.1L69.8564 35.5559C70.6256 37.0576 71.6656 38.2728 72.981 39.1747L73.5465 38.35ZM70.7465 35.1L71.6453 34.6616C71.0245 33.3891 70.5672 31.9466 70.2813 30.3262L69.2965 30.5L68.3117 30.6738C68.6258 32.4534 69.1351 34.0776 69.8477 35.5384L70.7465 35.1ZM69.2965 30.5L70.2849 30.3479C70.0265 28.6689 69.8965 26.9033 69.8965 25.05H68.8965H67.8965C67.8965 26.9967 68.0331 28.8644 68.3081 30.6521L69.2965 30.5ZM68.8965 25.05H69.8965C69.8965 19.633 70.7492 16.0052 72.2547 13.9389L71.4465 13.35L70.6382 12.7611C68.7437 15.3615 67.8965 19.5336 67.8965 25.05H68.8965ZM71.4465 13.35L72.2492 13.9463C73.7707 11.8981 75.9386 10.85 78.8965 10.85V9.85V8.85C75.3878 8.85 72.5889 10.1352 70.6437 12.7537L71.4465 13.35ZM78.8965 9.85V10.85C80.2294 10.85 81.7539 11.1232 83.4803 11.6987L83.7965 10.75L84.1127 9.80132C82.2391 9.17677 80.4969 8.85 78.8965 8.85V9.85ZM83.7965 10.75H84.7965V2.6H83.7965H82.7965V10.75H83.7965ZM83.7965 2.6L83.9448 3.58893L92.9448 2.23893L92.7965 1.25L92.6481 0.261061L83.6481 1.61106L83.7965 2.6ZM92.7965 1.25H91.7965V39H92.7965H93.7965V1.25H92.7965ZM92.7965 39V38H85.1465V39V40H92.7965V39ZM85.1465 39L86.093 38.6773L85.343 36.4773L84.3965 36.8L83.45 37.1227L84.2 39.3227L85.1465 39ZM84.3965 36.8L83.6458 36.1394C83.0138 36.8575 82.2155 37.4429 81.2327 37.8896L81.6465 38.8L82.0603 39.7104C83.2775 39.1571 84.3125 38.4092 85.1472 37.4606L84.3965 36.8ZM81.6465 38.8L81.2559 37.8794C80.2868 38.2906 79.2371 38.5 78.0965 38.5V39.5V40.5C79.4892 40.5 80.8062 40.2428 82.037 39.7206L81.6465 38.8ZM81.0465 32.5V33.5C81.5305 33.5 82.0422 33.4127 82.5712 33.2615L82.2965 32.3L82.0218 31.3385C81.6174 31.454 81.2958 31.5 81.0465 31.5V32.5ZM82.2965 32.3L82.5712 33.2615C83.1295 33.102 83.7021 32.8504 84.2867 32.5216L83.7965 31.65L83.3062 30.7784C82.8242 31.0496 82.3968 31.2313 82.0218 31.3385L82.2965 32.3ZM83.7965 31.65H84.7965V17.15H83.7965H82.7965V31.65H83.7965ZM83.7965 17.15L84.0596 16.1852C83.2571 15.9664 82.4843 15.85 81.7465 15.85V16.85V17.85C82.2753 17.85 82.8693 17.9336 83.5334 18.1148L83.7965 17.15ZM81.7465 16.85V15.85C80.8283 15.85 79.9808 16.0608 79.2791 16.5603C78.5731 17.0629 78.1084 17.7909 77.8412 18.6543L78.7965 18.95L79.7518 19.2457C79.9179 18.7091 80.1615 18.3871 80.4389 18.1897C80.7205 17.9892 81.1313 17.85 81.7465 17.85V16.85ZM78.7965 18.95L77.835 18.6753C77.3955 20.2134 77.1965 22.4439 77.1965 25.3H78.1965H79.1965C79.1965 22.4894 79.3975 20.4866 79.758 19.2247L78.7965 18.95ZM78.1965 25.3H77.1965C77.1965 27.9408 77.3916 29.9627 77.8567 31.2417L78.7965 30.9L79.7363 30.5583C79.4014 29.6373 79.1965 27.9259 79.1965 25.3H78.1965ZM78.7965 30.9L77.8602 31.2511C78.1134 31.9265 78.507 32.5078 79.0795 32.915C79.6547 33.324 80.3303 33.5 81.0465 33.5V32.5V31.5C80.6627 31.5 80.4133 31.4093 80.2385 31.285C80.061 31.1588 79.8796 30.9402 79.7328 30.5489L78.7965 30.9ZM103.601 38.85L103.339 39.8152L103.344 39.8166L103.601 38.85ZM99.4508 36.55L98.7648 37.2776L98.7648 37.2776L99.4508 36.55ZM96.7508 32L95.8005 32.3113L95.8005 32.3113L96.7508 32ZM98.5008 13.6L97.6944 13.0086L97.693 13.0105L98.5008 13.6ZM115.251 12.9L114.471 13.5263L114.477 13.5333L114.483 13.5402L115.251 12.9ZM117.651 24.75L118.648 24.8188L118.649 24.8165L117.651 24.75ZM117.301 27.4V28.4H118.114L118.28 27.604L117.301 27.4ZM105.351 27.4V26.4H104.248L104.356 27.4979L105.351 27.4ZM107.051 31.5L106.451 32.3L106.46 32.307L106.47 32.3137L107.051 31.5ZM114.101 32.3L113.943 31.3125L113.936 31.3136L114.101 32.3ZM116.501 31.85H117.501V30.6093L116.288 30.8728L116.501 31.85ZM116.501 38.65L116.697 39.6306L117.501 39.4698V38.65H116.501ZM112.801 39.25L112.674 38.2581L112.67 38.2585L112.801 39.25ZM105.301 21.85L104.303 21.7853L104.234 22.85H105.301V21.85ZM109.401 21.85V22.85H110.401V21.85H109.401ZM109.301 19.5L108.302 19.54L108.302 19.5599L108.304 19.5797L109.301 19.5ZM108.851 17.35L107.919 17.7124L107.927 17.7345L107.937 17.7561L108.851 17.35ZM109.001 39.5V38.5C107.107 38.5 105.395 38.2913 103.857 37.8834L103.601 38.85L103.344 39.8166C105.074 40.2754 106.961 40.5 109.001 40.5V39.5ZM103.601 38.85L103.862 37.8848C102.416 37.493 101.18 36.8056 100.137 35.8224L99.4508 36.55L98.7648 37.2776C100.055 38.4944 101.586 39.3404 103.339 39.8152L103.601 38.85ZM99.4508 36.55L100.137 35.8224C99.12 34.8637 98.2961 33.5051 97.7011 31.6887L96.7508 32L95.8005 32.3113C96.4721 34.3616 97.4483 36.0363 98.7648 37.2776L99.4508 36.55ZM96.7508 32L97.7011 31.6887C97.1123 29.8913 96.8008 27.5395 96.8008 24.6H95.8008H94.8008C94.8008 27.6605 95.1226 30.242 95.8005 32.3113L96.7508 32ZM95.8008 24.6H96.8008C96.8008 19.8289 97.688 16.4103 99.3086 14.1895L98.5008 13.6L97.693 13.0105C95.7136 15.723 94.8008 19.6378 94.8008 24.6H95.8008ZM98.5008 13.6L99.3072 14.1914C100.897 12.0228 103.481 10.85 107.301 10.85V9.85V8.85C103.054 8.85 99.7707 10.1772 97.6944 13.0086L98.5008 13.6ZM107.301 9.85V10.85C110.794 10.85 113.096 11.8143 114.471 13.5263L115.251 12.9L116.03 12.2737C114.139 9.91902 111.141 8.85 107.301 8.85V9.85ZM115.251 12.9L114.483 13.5402C115.939 15.2873 116.751 18 116.751 21.85H117.751H118.751C118.751 17.7666 117.896 14.5127 116.019 12.2598L115.251 12.9ZM117.751 21.85H116.751C116.751 22.7596 116.718 23.704 116.653 24.6835L117.651 24.75L118.649 24.8165C118.717 23.796 118.751 22.8071 118.751 21.85H117.751ZM117.651 24.75L116.653 24.6812C116.589 25.6105 116.478 26.4479 116.322 27.196L117.301 27.4L118.28 27.604C118.457 26.7521 118.579 25.8228 118.648 24.8188L117.651 24.75ZM117.301 27.4V26.4H105.351V27.4V28.4H117.301V27.4ZM105.351 27.4L104.356 27.4979C104.564 29.6138 105.173 31.3416 106.451 32.3L107.051 31.5L107.651 30.7C107.062 30.2584 106.538 29.2529 106.346 27.3021L105.351 27.4ZM107.051 31.5L106.47 32.3137C107.669 33.1704 109.505 33.5 111.751 33.5V32.5V31.5C109.597 31.5 108.299 31.163 107.632 30.6863L107.051 31.5ZM111.751 32.5V33.5C112.576 33.5 113.414 33.4283 114.265 33.2864L114.101 32.3L113.936 31.3136C113.188 31.4384 112.459 31.5 111.751 31.5V32.5ZM114.101 32.3L114.259 33.2874C115.109 33.1514 115.927 32.998 116.713 32.8272L116.501 31.85L116.288 30.8728C115.541 31.0353 114.759 31.1819 113.943 31.3126L114.101 32.3ZM116.501 31.85H115.501V38.65H116.501H117.501V31.85H116.501ZM116.501 38.65L116.305 37.6694C115.163 37.8978 113.953 38.0941 112.674 38.2581L112.801 39.25L112.928 40.2419C114.249 40.0725 115.505 39.8689 116.697 39.6306L116.501 38.65ZM112.801 39.25L112.67 38.2585C111.447 38.4196 110.223 38.5 109.001 38.5V39.5V40.5C110.311 40.5 111.622 40.4138 112.931 40.2415L112.801 39.25ZM107.651 16.45V15.45C106.407 15.45 105.61 16.3349 105.146 17.401C104.685 18.4614 104.422 19.9498 104.303 21.7853L105.301 21.85L106.299 21.9147C106.413 20.1502 106.658 18.9386 106.98 18.199C107.3 17.4651 107.561 17.45 107.651 17.45V16.45ZM105.301 21.85V22.85H109.401V21.85V20.85H105.301V21.85ZM109.401 21.85H110.401C110.401 21.0867 110.366 20.2765 110.298 19.4203L109.301 19.5L108.304 19.5797C108.369 20.3901 108.401 21.1467 108.401 21.85H109.401ZM109.301 19.5L110.3 19.46C110.263 18.5331 110.094 17.686 109.765 16.9439L108.851 17.35L107.937 17.7561C108.14 18.214 108.272 18.8003 108.302 19.54L109.301 19.5ZM108.851 17.35L109.783 16.9876C109.618 16.5629 109.362 16.165 108.976 15.875C108.58 15.5782 108.12 15.45 107.651 15.45V16.45V17.45C107.748 17.45 107.772 17.4718 107.776 17.475C107.789 17.485 107.851 17.5371 107.919 17.7124L108.851 17.35ZM128.782 12.2L127.834 12.5162L128.286 13.8738L129.405 12.9822L128.782 12.2ZM140.882 12L140.192 12.723L140.2 12.7305L140.882 12ZM143.182 39V40H144.182V39H143.182ZM134.182 39H133.182V40H134.182V39ZM129.482 17.4L128.939 16.5604L128.482 16.856V17.4H129.482ZM129.482 39V40H130.482V39H129.482ZM120.482 39H119.482V40H120.482V39ZM120.482 10.25V9.25H119.482V10.25H120.482ZM128.132 10.25L129.081 9.93377L128.853 9.25H128.132V10.25ZM128.782 12.2L129.405 12.9822C131.213 11.5425 133.13 10.85 135.182 10.85V9.85V8.85C132.635 8.85 130.285 9.72414 128.159 11.4178L128.782 12.2ZM135.182 9.85V10.85C137.255 10.85 138.899 11.4874 140.192 12.723L140.882 12L141.573 11.277C139.866 9.64592 137.709 8.85 135.182 8.85V9.85ZM140.882 12L140.2 12.7305C141.465 13.9134 142.182 15.7554 142.182 18.45H143.182H144.182C144.182 15.4113 143.367 12.9532 141.565 11.2695L140.882 12ZM143.182 18.45H142.182V39H143.182H144.182V18.45H143.182ZM143.182 39V38H134.182V39V40H143.182V39ZM134.182 39H135.182V19.9H134.182H133.182V39H134.182ZM134.182 19.9H135.182C135.182 18.7533 134.926 17.7065 134.238 16.9429C133.531 16.1595 132.532 15.85 131.432 15.85V16.85V17.85C132.167 17.85 132.542 18.0488 132.752 18.2821C132.98 18.5351 133.182 19.0134 133.182 19.9H134.182ZM131.432 16.85V15.85C130.524 15.85 129.682 16.08 128.939 16.5604L129.482 17.4L130.026 18.2396C130.417 17.9867 130.874 17.85 131.432 17.85V16.85ZM129.482 17.4H128.482V39H129.482H130.482V17.4H129.482ZM129.482 39V38H120.482V39V40H129.482V39ZM120.482 39H121.482V10.25H120.482H119.482V39H120.482ZM120.482 10.25V11.25H128.132V10.25V9.25H120.482V10.25ZM128.132 10.25L127.184 10.5662L127.834 12.5162L128.782 12.2L129.731 11.8838L129.081 9.93377L128.132 10.25ZM143.195 3V2H141.942L142.22 3.22209L143.195 3ZM153.595 3L154.584 2.85214L154.457 2H153.595V3ZM155.845 18.05L154.856 18.1979L154.856 18.1988L155.845 18.05ZM157.395 28.35L156.406 28.4988L158.382 28.5128L157.395 28.35ZM159.095 18.05L160.082 18.2128L160.083 18.2054L160.084 18.1979L159.095 18.05ZM161.345 3V2H160.484L160.356 2.85214L161.345 3ZM171.195 3L172.17 3.22209L172.449 2H171.195V3ZM162.995 39V40H163.793L163.97 39.2221L162.995 39ZM151.395 39L150.42 39.2221L150.597 40H151.395V39ZM143.195 3V4H153.595V3V2H143.195V3ZM153.595 3L152.606 3.14786L154.856 18.1979L155.845 18.05L156.834 17.9021L154.584 2.85214L153.595 3ZM155.845 18.05L154.856 18.1988L156.406 28.4988L157.395 28.35L158.384 28.2012L156.834 17.9012L155.845 18.05ZM157.395 28.35L158.382 28.5128L160.082 18.2128L159.095 18.05L158.109 17.8872L156.409 28.1872L157.395 28.35ZM159.095 18.05L160.084 18.1979L162.334 3.14786L161.345 3L160.356 2.85214L158.106 17.9021L159.095 18.05ZM161.345 3V4H171.195V3V2H161.345V3ZM171.195 3L170.22 2.77791L162.02 38.7779L162.995 39L163.97 39.2221L172.17 3.22209L171.195 3ZM162.995 39V38H151.395V39V40H162.995V39ZM151.395 39L152.37 38.7779L144.17 2.77791L143.195 3L142.22 3.22209L150.42 39.2221L151.395 39ZM177.771 38.85L177.509 39.8152L177.514 39.8166L177.771 38.85ZM173.621 36.55L172.935 37.2776L172.935 37.2776L173.621 36.55ZM170.921 32L169.97 32.3113L169.97 32.3113L170.921 32ZM172.671 13.6L171.864 13.0086L171.863 13.0105L172.671 13.6ZM189.421 12.9L188.641 13.5263L188.647 13.5333L188.652 13.5402L189.421 12.9ZM191.821 24.75L192.818 24.8188L192.818 24.8165L191.821 24.75ZM191.471 27.4V28.4H192.284L192.45 27.604L191.471 27.4ZM179.521 27.4V26.4H178.418L178.526 27.4979L179.521 27.4ZM181.221 31.5L180.621 32.3L180.63 32.307L180.639 32.3137L181.221 31.5ZM188.271 32.3L188.113 31.3125L188.106 31.3136L188.271 32.3ZM190.671 31.85H191.671V30.6093L190.458 30.8728L190.671 31.85ZM190.671 38.65L190.867 39.6306L191.671 39.4698V38.65H190.671ZM186.971 39.25L186.844 38.2581L186.84 38.2585L186.971 39.25ZM179.471 21.85L178.473 21.7853L178.404 22.85H179.471V21.85ZM183.571 21.85V22.85H184.571V21.85H183.571ZM183.471 19.5L182.472 19.54L182.472 19.5599L182.474 19.5797L183.471 19.5ZM183.021 17.35L182.089 17.7124L182.097 17.7345L182.107 17.7561L183.021 17.35ZM183.171 39.5V38.5C181.277 38.5 179.564 38.2913 178.027 37.8834L177.771 38.85L177.514 39.8166C179.244 40.2754 181.131 40.5 183.171 40.5V39.5ZM177.771 38.85L178.032 37.8848C176.585 37.493 175.349 36.8056 174.307 35.8224L173.621 36.55L172.935 37.2776C174.225 38.4944 175.756 39.3404 177.509 39.8152L177.771 38.85ZM173.621 36.55L174.307 35.8224C173.29 34.8637 172.466 33.5051 171.871 31.6887L170.921 32L169.97 32.3113C170.642 34.3616 171.618 36.0363 172.935 37.2776L173.621 36.55ZM170.921 32L171.871 31.6887C171.282 29.8913 170.971 27.5395 170.971 24.6H169.971H168.971C168.971 27.6605 169.293 30.242 169.97 32.3113L170.921 32ZM169.971 24.6H170.971C170.971 19.8289 171.858 16.4103 173.478 14.1895L172.671 13.6L171.863 13.0105C169.884 15.723 168.971 19.6378 168.971 24.6H169.971ZM172.671 13.6L173.477 14.1914C175.067 12.0228 177.651 10.85 181.471 10.85V9.85V8.85C177.224 8.85 173.941 10.1772 171.864 13.0086L172.671 13.6ZM181.471 9.85V10.85C184.964 10.85 187.266 11.8143 188.641 13.5263L189.421 12.9L190.2 12.2737C188.309 9.91902 185.311 8.85 181.471 8.85V9.85ZM189.421 12.9L188.652 13.5402C190.108 15.2873 190.921 18 190.921 21.85H191.921H192.921C192.921 17.7666 192.066 14.5127 190.189 12.2598L189.421 12.9ZM191.921 21.85H190.921C190.921 22.7596 190.888 23.704 190.823 24.6835L191.821 24.75L192.818 24.8165C192.887 23.796 192.921 22.8071 192.921 21.85H191.921ZM191.821 24.75L190.823 24.6812C190.759 25.6105 190.648 26.4479 190.492 27.196L191.471 27.4L192.45 27.604C192.627 26.7521 192.749 25.8228 192.818 24.8188L191.821 24.75ZM191.471 27.4V26.4H179.521V27.4V28.4H191.471V27.4ZM179.521 27.4L178.526 27.4979C178.734 29.6138 179.343 31.3416 180.621 32.3L181.221 31.5L181.821 30.7C181.232 30.2584 180.708 29.2529 180.516 27.3021L179.521 27.4ZM181.221 31.5L180.639 32.3137C181.839 33.1704 183.675 33.5 185.921 33.5V32.5V31.5C183.767 31.5 182.469 31.163 181.802 30.6863L181.221 31.5ZM185.921 32.5V33.5C186.746 33.5 187.584 33.4283 188.435 33.2864L188.271 32.3L188.106 31.3136C187.358 31.4384 186.629 31.5 185.921 31.5V32.5ZM188.271 32.3L188.429 33.2874C189.279 33.1514 190.097 32.998 190.883 32.8272L190.671 31.85L190.458 30.8728C189.711 31.0353 188.929 31.1819 188.113 31.3126L188.271 32.3ZM190.671 31.85H189.671V38.65H190.671H191.671V31.85H190.671ZM190.671 38.65L190.475 37.6694C189.333 37.8978 188.123 38.0941 186.844 38.2581L186.971 39.25L187.098 40.2419C188.419 40.0725 189.675 39.8689 190.867 39.6306L190.671 38.65ZM186.971 39.25L186.84 38.2585C185.616 38.4196 184.393 38.5 183.171 38.5V39.5V40.5C184.481 40.5 185.792 40.4138 187.101 40.2415L186.971 39.25ZM181.821 16.45V15.45C180.577 15.45 179.78 16.3349 179.316 17.401C178.855 18.4614 178.592 19.9498 178.473 21.7853L179.471 21.85L180.469 21.9147C180.583 20.1502 180.828 18.9386 181.15 18.199C181.47 17.4651 181.731 17.45 181.821 17.45V16.45ZM179.471 21.85V22.85H183.571V21.85V20.85H179.471V21.85ZM183.571 21.85H184.571C184.571 21.0867 184.536 20.2765 184.468 19.4203L183.471 19.5L182.474 19.5797C182.539 20.3901 182.571 21.1467 182.571 21.85H183.571ZM183.471 19.5L184.47 19.46C184.433 18.5331 184.264 17.686 183.935 16.9439L183.021 17.35L182.107 17.7561C182.31 18.214 182.442 18.8003 182.472 19.54L183.471 19.5ZM183.021 17.35L183.953 16.9876C183.788 16.5629 183.532 16.165 183.146 15.875C182.75 15.5782 182.29 15.45 181.821 15.45V16.45V17.45C181.918 17.45 181.941 17.4718 181.946 17.475C181.959 17.485 182.021 17.5371 182.089 17.7124L183.021 17.35ZM194.652 10.25V9.25H193.652V10.25H194.652ZM203.652 10.25H204.652V9.25H203.652V10.25ZM203.652 39V40H204.652V39H203.652ZM194.652 39H193.652V40H194.652V39ZM194.402 1.25V0.249997H193.402V1.25H194.402ZM203.902 1.25H204.902V0.249997H203.902V1.25ZM203.902 8.05V9.05H204.902V8.05H203.902ZM194.402 8.05H193.402V9.05H194.402V8.05ZM194.652 10.25V11.25H203.652V10.25V9.25H194.652V10.25ZM203.652 10.25H202.652V39H203.652H204.652V10.25H203.652ZM203.652 39V38H194.652V39V40H203.652V39ZM194.652 39H195.652V10.25H194.652H193.652V39H194.652ZM194.402 1.25V2.25H203.902V1.25V0.249997H194.402V1.25ZM203.902 1.25H202.902V8.05H203.902H204.902V1.25H203.902ZM203.902 8.05V7.05H194.402V8.05V9.05H203.902V8.05ZM194.402 8.05H195.402V1.25H194.402H193.402V8.05H194.402ZM216.641 39V40H217.641V39H216.641ZM207.641 39H206.641V40H207.641V39ZM207.641 2.45L207.508 1.45877L206.641 1.57448V2.45H207.641ZM216.641 1.25H217.641V0.107814L216.508 0.258769L216.641 1.25ZM216.641 39V38H207.641V39V40H216.641V39ZM207.641 39H208.641V2.45H207.641H206.641V39H207.641ZM207.641 2.45L207.773 3.44123L216.773 2.24123L216.641 1.25L216.508 0.258769L207.508 1.45877L207.641 2.45ZM216.641 1.25H215.641V39H216.641H217.641V1.25H216.641Z" fill="#FA6B30" fill-opacity="0.48" mask="url(#path-1-outside-1_228_59)"/>
</svg>
